<svg xmlns="http://www.w3.org/2000/svg" width="96" height="96" viewBox="0 0 96 96" id="airplane-top-view">
  <path d="M87.96,49.24a3.574,3.574,0,0,0-3.07-.99L80.2,30.7l8.44-7.95a15.752,15.752,0,0,0,3.82-5.66c3.257-8.389,2.845-6.622,3.53-13.76A3.111,3.111,0,0,0,92.61-.05c-7.086.678-5.349.264-13.76,3.53A15.585,15.585,0,0,0,73.19,7.3l-8.01,8.51-17.5-4.67a3.551,3.551,0,0,0-.98-3.16L39.78,1.07a3.567,3.567,0,0,0-5.04,0L29.51,6.3,12.05,1.64a1,1,0,0,0-.96.26L5.32,7.67a1,1,0,0,0,.24,1.59c10.108,5.264,6.917,3.6,14.14,7.37a3.584,3.584,0,0,0,.86,3.66l6.91,6.91a3.547,3.547,0,0,0,5.04,0l2.56-2.56c3.836,2,3.1,1.57,3.2,1.67a.908.908,0,0,0,.55.27c.1.1-.121-.058,10.87,5.68L29.71,53.48,5.54,46.55a1.016,1.016,0,0,0-.98.26L.29,51.07A1,1,0,0,0,.4,52.58L20.02,67.16l-.63,1.9a3.219,3.219,0,0,0,.78,3.31l3.4,3.4a3.213,3.213,0,0,0,3.31.78l1.93-.63L43.48,95.66a1.006,1.006,0,0,0,1.51.11l4.26-4.27a.993.993,0,0,0,.26-.98L42.53,66.17l21.2-19.96c1.746,3.352,5.866,11.254,7.61,14.61l-2.6,2.61a3.567,3.567,0,0,0,0,5.04l6.91,6.91a3.555,3.555,0,0,0,3.71.83c3.866,7.417,2.146,4.116,7.45,14.3a1,1,0,0,0,1.59.24l5.77-5.77a1,1,0,0,0,.26-.96L89.72,66.35l5.15-5.15a3.567,3.567,0,0,0,0-5.04ZM36.16,2.48a1.582,1.582,0,0,1,2.21,0L45.28,9.4a1.5,1.5,0,0,1,.45,1.22L31.75,6.89ZM7.7,8.12l4.4-4.4c30.483,8.133,8.119,2.173,51.52,13.75l-5.55,5.89C39.781,18.492,29.263,15.665,14.8,11.82ZM31.1,25.79a1.608,1.608,0,0,1-2.21,0l-6.92-6.91a1.561,1.561,0,0,1-.44-1.3l11.69,6.09Zm-8.16-9.73c23.394,6.246,12.919,3.439,19.07,5.09l-3.19,3.19C14.571,11.679,26.417,17.872,22.94,16.06Zm17.74,9.25,3.56-3.57,12.27,3.27-5.4,5.74ZM2.53,51.67l3.03-3.03,22.6,6.48c-3.907,4.156-6.071,6-7.48,10.04ZM47.42,90.5l-3.03,3.03L30.8,75.25c4.1-1.417,6.055-3.744,10.08-7.54ZM35.29,70.24c-2.787,2.623-5.211,3.144-9.04,4.41a1.208,1.208,0,0,1-1.26-.3l-3.4-3.4a1.22,1.22,0,0,1-.3-1.27c1.242-3.755,1.8-6.254,4.41-9.03,5.926-6.3,36.972-39.272,48.94-51.98a13.6,13.6,0,0,1,4.94-3.32C85,3.23,86.221,2.581,88.83,2.32c4.09-.393,3.9-.38,4.07-.38A1.1,1.1,0,0,1,94,3.14c-.39,4.071-.39,5.461-1.28,7.77-3.872,9.907-1.883,7.058-14.76,19.16ZM71,39.36l3.38,12.65-3.53,3.53L65.24,44.78Zm.82,18.04,3.15-3.15c2.631,9.846-1.611-6.071,5.04,18.88C71.453,56.717,73.171,60.021,71.82,57.4Zm5.24,16.57-6.91-6.92a1.563,1.563,0,0,1,0-2.21l2.16-2.16,6.1,11.71A1.508,1.508,0,0,1,77.06,73.97Zm15.29,10-4.4,4.4-3.7-7.1c-2.415-9.055-7.278-27.277-11.61-43.46l5.9-5.55C88.46,69.367,87.067,64.2,92.35,83.97Zm1.11-24.19-4.34,4.34L85.41,50.2a1.517,1.517,0,0,1,1.13.46l6.92,6.91A1.563,1.563,0,0,1,93.46,59.78Z"></path>
  <path d="M77.29 20.06l.06-.05c0-.1-.127.117 9.08-9.09a1 1 0 00-1.41-1.41C72.871 21.658 108.338-13.808 51.51 43.02a1.106 1.106 0 00-.15 1.23 1.06 1.06 0 001.68.3C78.51 19.08 77.29 20.457 77.29 20.06zM38.06 59.29a3.909 3.909 0 00-6.25-.44l-4.72 5.49a3.368 3.368 0 004.75 4.75l5.49-4.71a3.911 3.911 0 00.82-4.94A.6.6 0 0038.06 59.29zm-2.04 3.57l-5.48 4.71a1.364 1.364 0 01-2.21-1.38c.114-.434-.153-.035 4.99-6.03a1.873 1.873 0 011.7-.65.477.477 0 01.2.04A1.909 1.909 0 0136.02 62.86z"></path>
</svg>
